<?xml version="1.0" encoding="UTF-8"?>
<!DOCTYPE svg PUBLIC "-//W3C//DTD SVG 1.1//EN" "http://www.w3.org/Graphics/SVG/1.1/DTD/svg11.dtd">
<svg xmlns="http://www.w3.org/2000/svg" version="1.1" width="588px" height="424px" style="shape-rendering:geometricPrecision; text-rendering:geometricPrecision; image-rendering:optimizeQuality; fill-rule:evenodd; clip-rule:evenodd" xmlns:xlink="http://www.w3.org/1999/xlink">
<g><path style="opacity:0.6" fill="#627aa8" d="M 121.5,0.5 C 116.75,2.03084 111.75,2.69751 106.5,2.5C 111.29,1.2751 116.29,0.608435 121.5,0.5 Z"/></g>
<g><path style="opacity:1" fill="#184893" d="M 121.5,0.5 C 129.507,0.333622 137.507,0.500289 145.5,1C 152.457,2.24471 159.457,3.07804 166.5,3.5C 167.791,3.26269 168.791,3.59603 169.5,4.5C 170.949,6.16441 172.949,6.99775 175.5,7C 174.062,7.21893 172.729,7.71893 171.5,8.5C 172.908,9.24325 174.241,10.0766 175.5,11C 178.02,11.0138 180.52,10.5138 183,9.5C 186.385,10.9448 189.885,11.9448 193.5,12.5C 193.833,12.5 194.167,12.5 194.5,12.5C 196.702,13.2007 198.535,14.534 200,16.5C 201.766,17.2335 203.599,17.5668 205.5,17.5C 210.417,19.4469 214.751,22.1135 218.5,25.5C 219.545,28.874 221.879,30.874 225.5,31.5C 228.417,33.0725 231.084,35.0725 233.5,37.5C 233.5,39.5 234.5,40.5 236.5,40.5C 247.941,51.958 256.607,65.2913 262.5,80.5C 262.427,82.0269 263.094,83.0269 264.5,83.5C 265.5,86.8333 266.5,90.1667 267.5,93.5C 267.32,97.2856 268.32,100.619 270.5,103.5C 271.795,107.267 272.461,111.267 272.5,115.5C 272.215,118.829 272.882,121.829 274.5,124.5C 275.786,139.831 275.786,155.164 274.5,170.5C 272.989,173.544 272.322,176.878 272.5,180.5C 272.561,186.804 271.561,192.804 269.5,198.5C 267.882,201.171 267.215,204.171 267.5,207.5C 267.105,212.292 266.105,216.958 264.5,221.5C 263.069,222.78 262.402,224.447 262.5,226.5C 262.443,227.609 262.11,228.609 261.5,229.5C 260.463,230.93 259.796,232.597 259.5,234.5C 258.736,237.018 257.736,239.351 256.5,241.5C 255.292,242.234 253.959,242.567 252.5,242.5C 252.5,244.167 252.5,245.833 252.5,247.5C 246.968,246.935 245.968,248.768 249.5,253C 248.33,254.755 246.663,255.755 244.5,256C 245.333,258.081 245.333,260.248 244.5,262.5C 237.339,274.408 228.672,285.074 218.5,294.5C 217.094,294.973 216.427,295.973 216.5,297.5C 212.652,302.619 207.986,306.619 202.5,309.5C 202.719,310.675 202.386,311.675 201.5,312.5C 197.474,315.997 193.474,319.33 189.5,322.5C 188.022,322.238 186.689,322.571 185.5,323.5C 182.956,325.55 180.289,327.383 177.5,329C 178.684,330.145 178.684,331.312 177.5,332.5C 174.504,335.486 171.171,338.152 167.5,340.5C 164.633,340.369 162.967,341.703 162.5,344.5C 152.923,351.635 142.923,358.301 132.5,364.5C 131.07,364.579 129.736,364.246 128.5,363.5C 127.289,364.274 127.289,365.107 128.5,366C 126.866,366.494 125.199,366.66 123.5,366.5C 123.371,368.216 123.038,369.883 122.5,371.5C 116.735,375.267 110.735,378.601 104.5,381.5C 102.326,381.75 100.659,382.75 99.5,384.5C 88.6535,391.447 77.3201,397.447 65.5,402.5C 63.5,402.5 61.5,402.5 59.5,402.5C 59.1692,404.322 58.5025,405.989 57.5,407.5C 49.5797,411.957 41.2464,415.624 32.5,418.5C 31.2905,418.932 30.2905,419.599 29.5,420.5C 27.58,421.065 25.9133,422.065 24.5,423.5C 23.1667,423.5 21.8333,423.5 20.5,423.5C 19.3702,421.685 18.7036,419.685 18.5,417.5C 18.047,415.435 17.047,413.768 15.5,412.5C 13.1496,410.787 12.1496,408.453 12.5,405.5C 13.1495,402.756 12.4828,400.089 10.5,397.5C 11.3311,395.527 11.4978,393.527 11,391.5C 8.21563,395.059 6.3823,394.225 5.5,389C 6.89324,387.699 7.39324,386.199 7,384.5C 5.42157,384.412 3.92157,384.412 2.5,384.5C 4.75088,381.386 7.75088,379.219 11.5,378C 10.635,376.641 9.63504,375.474 8.5,374.5C 15.3311,373.428 20.6645,370.095 24.5,364.5C 27.9974,361.917 31.6641,359.584 35.5,357.5C 37.674,357.25 39.3406,356.25 40.5,354.5C 43.897,351.775 47.5636,349.442 51.5,347.5C 56.1177,345.257 60.7844,343.09 65.5,341C 69.6443,337.259 73.3109,333.093 76.5,328.5C 81.3132,323.93 86.3132,319.597 91.5,315.5C 94.6626,313.754 97.996,312.254 101.5,311C 102.701,308.472 104.035,305.639 105.5,302.5C 115.821,291.15 125.155,279.15 133.5,266.5C 134.906,266.027 135.573,265.027 135.5,263.5C 136.909,259.684 138.576,256.017 140.5,252.5C 142.104,251.713 142.771,250.38 142.5,248.5C 142.263,247.209 142.596,246.209 143.5,245.5C 144.612,243.401 145.279,241.067 145.5,238.5C 145.833,236.5 146.167,234.5 146.5,232.5C 147.487,227.695 147.821,222.695 147.5,217.5C 145.265,217.205 143.265,217.539 141.5,218.5C 114.381,223.106 89.3805,218.106 66.5,203.5C 64.3912,200.231 62.7246,196.731 61.5,193C 60.0496,192.883 58.5496,193.05 57,193.5C 54.851,192.701 52.6843,191.867 50.5,191C 49.8095,189.933 49.3095,188.766 49,187.5C 46.438,186.636 44.6047,184.969 43.5,182.5C 41.9246,181.544 40.258,180.877 38.5,180.5C 38.5,180.167 38.5,179.833 38.5,179.5C 38.6602,177.801 38.4935,176.134 38,174.5C 33.8121,170.066 29.6454,165.733 25.5,161.5C 22.8794,157.885 21.2127,153.885 20.5,149.5C 20.573,147.973 19.9063,146.973 18.5,146.5C 16.7169,142.366 15.7169,138.033 15.5,133.5C 15.7062,130.505 15.0395,127.838 13.5,125.5C 11.5487,112.367 12.5487,99.3666 16.5,86.5C 17.6118,84.4006 18.2785,82.0673 18.5,79.5C 18.5,79.1667 18.5,78.8333 18.5,78.5C 19.6737,77.4863 20.3404,76.153 20.5,74.5C 20.523,72.0733 21.023,69.74 22,67.5C 26.2905,59.3136 30.9572,51.3136 36,43.5C 37.7038,41.6266 39.5372,39.9599 41.5,38.5C 44.1667,36.5 46.5,34.1667 48.5,31.5C 49.8333,30.8333 50.8333,29.8333 51.5,28.5C 55.1637,24.8428 59.1637,21.5095 63.5,18.5C 76.7826,10.4382 91.1159,5.10487 106.5,2.5C 111.75,2.69751 116.75,2.03084 121.5,0.5 Z"/></g>
<g><path style="opacity:0.843" fill="#728cb7" d="M 121.5,0.5 C 121.5,0.166667 121.5,-0.166667 121.5,-0.5C 129.833,-0.5 138.167,-0.5 146.5,-0.5C 153.167,0.833333 159.833,2.16667 166.5,3.5C 159.457,3.07804 152.457,2.24471 145.5,1C 137.507,0.500289 129.507,0.333622 121.5,0.5 Z"/></g>
<g><path style="opacity:1" fill="#194894" d="M 433.5,-0.5 C 441.833,-0.5 450.167,-0.5 458.5,-0.5C 464.32,0.816031 470.32,1.81603 476.5,2.5C 479.084,4.47249 482.084,5.47249 485.5,5.5C 486.833,5.5 488.167,5.5 489.5,5.5C 490.514,6.67373 491.847,7.3404 493.5,7.5C 495.438,9.16276 497.772,9.82943 500.5,9.5C 503.686,10.5969 506.686,11.9303 509.5,13.5C 510.29,14.4013 511.29,15.0679 512.5,15.5C 514.564,15.687 516.564,16.187 518.5,17C 531.519,24.196 542.852,33.3626 552.5,44.5C 552.478,48.4448 553.811,51.7781 556.5,54.5C 556.176,57.3288 554.843,57.9955 552.5,56.5C 551.571,58.3217 552.238,59.6551 554.5,60.5C 556.614,59.9661 558.448,58.9661 560,57.5C 561.635,59.9705 563.468,62.3039 565.5,64.5C 562.672,68.715 563.005,72.715 566.5,76.5C 567.797,73.8122 567.464,71.3122 565.5,69C 566.549,68.5078 567.549,68.6744 568.5,69.5C 569.747,71.0064 569.747,72.5064 568.5,74C 569.494,75.3287 570.494,76.662 571.5,78C 570.978,78.9503 570.311,79.7836 569.5,80.5C 571.538,82.2764 573.704,83.9431 576,85.5C 576.333,87.1667 576.667,88.8333 577,90.5C 577.383,89.944 577.883,89.6107 578.5,89.5C 578.229,91.3797 578.896,92.713 580.5,93.5C 583.473,103.331 585.806,113.331 587.5,123.5C 587.5,139.167 587.5,154.833 587.5,170.5C 586.21,175.113 585.21,179.78 584.5,184.5C 581.353,191.707 580.02,199.374 580.5,207.5C 576.277,226.513 568.944,244.179 558.5,260.5C 556.856,260.714 555.356,260.38 554,259.5C 553.5,260.667 552.667,261.5 551.5,262C 552.406,263.699 552.739,265.533 552.5,267.5C 551.448,267.649 550.448,267.483 549.5,267C 548.298,264.308 546.464,263.474 544,264.5C 544.746,267.166 545.913,269.833 547.5,272.5C 545.518,276.146 542.851,279.146 539.5,281.5C 537.659,283.512 536.659,285.845 536.5,288.5C 531.87,294.3 527.037,299.967 522,305.5C 505.326,320.859 487.826,335.193 469.5,348.5C 469.631,347.761 469.464,347.094 469,346.5C 467.266,347.249 465.433,347.749 463.5,348C 462.663,349.011 462.33,350.178 462.5,351.5C 460.396,351.201 458.396,351.534 456.5,352.5C 457.506,353.396 457.506,354.062 456.5,354.5C 455.808,353.975 455.308,353.308 455,352.5C 454.716,354.886 453.716,355.552 452,354.5C 451.342,356.108 451.842,357.275 453.5,358C 452.207,358.49 450.873,358.657 449.5,358.5C 449.5,359.5 449.5,360.5 449.5,361.5C 445.921,361.316 442.587,361.983 439.5,363.5C 439.5,364.5 439.5,365.5 439.5,366.5C 438.5,366.5 437.5,366.5 436.5,366.5C 436.5,367.5 436.5,368.5 436.5,369.5C 434.076,369.192 431.743,369.526 429.5,370.5C 430.807,371.865 430.807,373.198 429.5,374.5C 425.836,377.335 421.836,379.668 417.5,381.5C 416.85,381.196 416.183,380.863 415.5,380.5C 413.33,382.086 410.996,383.42 408.5,384.5C 405.835,383.112 404.835,384.112 405.5,387.5C 401.789,387.614 398.455,388.614 395.5,390.5C 395.5,391.833 395.5,393.167 395.5,394.5C 386.535,399.649 377.202,404.316 367.5,408.5C 365.62,408.229 364.287,408.896 363.5,410.5C 362.609,411.11 361.609,411.443 360.5,411.5C 358.973,411.427 357.973,412.094 357.5,413.5C 355.972,414.309 354.306,414.976 352.5,415.5C 350.973,415.427 349.973,416.094 349.5,417.5C 345.381,419.314 341.381,421.314 337.5,423.5C 335.833,423.5 334.167,423.5 332.5,423.5C 330.84,419.511 329.173,415.511 327.5,411.5C 327.34,409.847 326.674,408.514 325.5,407.5C 323.456,404.377 321.789,401.044 320.5,397.5C 320.892,394.052 320.225,390.886 318.5,388C 318.735,387.127 319.069,386.293 319.5,385.5C 318.726,384.289 317.893,384.289 317,385.5C 316.316,384.216 316.483,383.049 317.5,382C 319.78,381.767 321.78,380.934 323.5,379.5C 322.167,378.833 320.833,378.167 319.5,377.5C 320.62,375.404 322.12,375.07 324,376.5C 324.617,375.551 324.451,374.718 323.5,374C 324.381,373.292 325.047,372.458 325.5,371.5C 331.833,367.214 338.5,363.214 345.5,359.5C 349.18,358.44 352.846,357.274 356.5,356C 358.014,353.334 359.68,350.834 361.5,348.5C 367.77,343.357 374.436,338.69 381.5,334.5C 382.71,334.068 383.71,333.401 384.5,332.5C 390.943,326.669 397.61,321.002 404.5,315.5C 405.833,314.833 406.833,313.833 407.5,312.5C 419.99,300.189 431.49,287.189 442,273.5C 446.053,266.615 449.886,259.615 453.5,252.5C 454.537,251.07 455.204,249.403 455.5,247.5C 455.833,246.167 456.167,244.833 456.5,243.5C 458.223,241.22 458.889,238.553 458.5,235.5C 459.292,229.87 459.625,224.203 459.5,218.5C 451.483,218.902 443.483,219.568 435.5,220.5C 428.183,219.526 420.85,218.693 413.5,218C 411.277,217.434 409.277,216.6 407.5,215.5C 407.586,214.504 407.252,213.671 406.5,213C 401.394,213.583 397.561,211.75 395,207.5C 393.951,208.517 392.784,208.684 391.5,208C 388.945,205.442 386.112,203.275 383,201.5C 381.512,203.83 379.679,204.164 377.5,202.5C 374.763,202.141 372.763,200.807 371.5,198.5C 370.71,197.599 369.71,196.932 368.5,196.5C 368.5,195.833 368.167,195.5 367.5,195.5C 367.027,194.094 366.027,193.427 364.5,193.5C 359.922,189.588 355.588,185.255 351.5,180.5C 351.19,178.856 350.19,177.856 348.5,177.5C 343.024,170.351 338.358,162.684 334.5,154.5C 334.598,152.447 333.931,150.78 332.5,149.5C 330.647,146.792 329.647,143.792 329.5,140.5C 329.483,136.466 328.483,132.799 326.5,129.5C 322.876,107.606 325.876,86.6061 335.5,66.5C 336.906,66.0269 337.573,65.0269 337.5,63.5C 340.655,55.1046 345.321,47.7712 351.5,41.5C 353.587,40.4154 354.92,38.7488 355.5,36.5C 360.054,30.8978 365.388,26.2311 371.5,22.5C 374.198,22.1551 376.198,20.8218 377.5,18.5C 380.24,16.947 382.907,15.1137 385.5,13C 400.89,6.14521 416.89,1.64521 433.5,-0.5 Z"/></g>
<g><path style="opacity:0.376" fill="#7e9fc5" d="M 476.5,2.5 C 479.785,2.92809 482.785,3.92809 485.5,5.5C 482.084,5.47249 479.084,4.47249 476.5,2.5 Z"/></g>
<g><path style="opacity:0.078" fill="#b8c3dd" d="M 489.5,5.5 C 491.38,5.22911 492.713,5.89578 493.5,7.5C 491.847,7.3404 490.514,6.67373 489.5,5.5 Z"/></g>
<g><path style="opacity:0.188" fill="#7696b3" d="M 493.5,7.5 C 496.067,7.72148 498.401,8.38815 500.5,9.5C 497.772,9.82943 495.438,9.16276 493.5,7.5 Z"/></g>
<g><path style="opacity:1" fill="#3a5794" d="M 169.5,4.5 C 178.182,5.52777 186.182,8.19444 193.5,12.5C 189.885,11.9448 186.385,10.9448 183,9.5C 180.52,10.5138 178.02,11.0138 175.5,11C 174.241,10.0766 172.908,9.24325 171.5,8.5C 172.729,7.71893 174.062,7.21893 175.5,7C 172.949,6.99775 170.949,6.16441 169.5,4.5 Z"/></g>
<g><path style="opacity:0.133" fill="#91a1c7" d="M 509.5,13.5 C 511.179,13.2852 512.179,13.9519 512.5,15.5C 511.29,15.0679 510.29,14.4013 509.5,13.5 Z"/></g>
<g><path style="opacity:0.514" fill="#687da4" d="M 194.5,12.5 C 195.873,12.3433 197.207,12.51 198.5,13C 200.592,15.036 202.926,16.536 205.5,17.5C 203.599,17.5668 201.766,17.2335 200,16.5C 198.535,14.534 196.702,13.2007 194.5,12.5 Z"/></g>
<g><path style="opacity:0.357" fill="#7c96b8" d="M 377.5,18.5 C 376.198,20.8218 374.198,22.1551 371.5,22.5C 373.147,20.6736 375.147,19.3403 377.5,18.5 Z"/></g>
<g><path style="opacity:1" fill="#5d6d9d" d="M 218.5,25.5 C 221.546,26.8291 223.879,28.8291 225.5,31.5C 221.879,30.874 219.545,28.874 218.5,25.5 Z"/></g>
<g><path style="opacity:0.267" fill="#9aa6c7" d="M 51.5,28.5 C 50.8333,29.8333 49.8333,30.8333 48.5,31.5C 48.5,29.5 49.5,28.5 51.5,28.5 Z"/></g>
<g><path style="opacity:0.443" fill="#8799bc" d="M 48.5,31.5 C 46.5,34.1667 44.1667,36.5 41.5,38.5C 42.8333,35.1667 45.1667,32.8333 48.5,31.5 Z"/></g>
<g><path style="opacity:0.114" fill="#aabbe1" d="M 233.5,37.5 C 234.833,38.1667 235.833,39.1667 236.5,40.5C 234.5,40.5 233.5,39.5 233.5,37.5 Z"/></g>
<g><path style="opacity:0.431" fill="#899fc1" d="M 355.5,36.5 C 354.92,38.7488 353.587,40.4154 351.5,41.5C 352.08,39.2512 353.413,37.5846 355.5,36.5 Z"/></g>
<g><path style="opacity:1" fill="#2f5092" d="M 552.5,44.5 C 556.207,47.5758 559.207,51.2424 561.5,55.5C 561.622,58.2921 562.956,60.2921 565.5,61.5C 568.611,65.343 570.944,69.6763 572.5,74.5C 572.66,76.153 573.326,77.4863 574.5,78.5C 576.666,81.8379 577.999,85.5046 578.5,89.5C 577.883,89.6107 577.383,89.944 577,90.5C 576.667,88.8333 576.333,87.1667 576,85.5C 573.704,83.9431 571.538,82.2764 569.5,80.5C 570.311,79.7836 570.978,78.9503 571.5,78C 570.494,76.662 569.494,75.3287 568.5,74C 569.747,72.5064 569.747,71.0064 568.5,69.5C 567.549,68.6744 566.549,68.5078 565.5,69C 567.464,71.3122 567.797,73.8122 566.5,76.5C 563.005,72.715 562.672,68.715 565.5,64.5C 563.468,62.3039 561.635,59.9705 560,57.5C 558.448,58.9661 556.614,59.9661 554.5,60.5C 552.238,59.6551 551.571,58.3217 552.5,56.5C 554.843,57.9955 556.176,57.3288 556.5,54.5C 553.811,51.7781 552.478,48.4448 552.5,44.5 Z"/></g>
<g><path style="opacity:0.533" fill="#8b9dbc" d="M 561.5,55.5 C 563.218,57.2228 564.551,59.2228 565.5,61.5C 562.956,60.2921 561.622,58.2921 561.5,55.5 Z"/></g>
<g><path style="opacity:0.086" fill="#bdc9ec" d="M 337.5,63.5 C 337.573,65.0269 336.906,66.0269 335.5,66.5C 335.427,64.9731 336.094,63.9731 337.5,63.5 Z"/></g>
<g><path style="opacity:0.035" fill="#b7cdeb" d="M 20.5,74.5 C 20.3404,76.153 19.6737,77.4863 18.5,78.5C 18.2291,76.6203 18.8958,75.287 20.5,74.5 Z"/></g>
<g><path style="opacity:0.141" fill="#98b1ce" d="M 572.5,74.5 C 574.104,75.287 574.771,76.6203 574.5,78.5C 573.326,77.4863 572.66,76.153 572.5,74.5 Z"/></g>
<g><path style="opacity:0.125" fill="#899bc5" d="M 18.5,79.5 C 18.2785,82.0673 17.6118,84.4006 16.5,86.5C 16.1706,83.7718 16.8372,81.4385 18.5,79.5 Z"/></g>
<g><path style="opacity:0.106" fill="#b1bde5" d="M 262.5,80.5 C 263.906,80.9731 264.573,81.9731 264.5,83.5C 263.094,83.0269 262.427,82.0269 262.5,80.5 Z"/></g>
<g><path style="opacity:0.129" fill="#94a8d5" d="M 578.5,89.5 C 579.674,90.5137 580.34,91.847 580.5,93.5C 578.896,92.713 578.229,91.3797 578.5,89.5 Z"/></g>
<g><path style="opacity:0.525" fill="#8398c1" d="M 267.5,93.5 C 268.87,96.6189 269.87,99.9523 270.5,103.5C 268.32,100.619 267.32,97.2856 267.5,93.5 Z"/></g>
<g><path style="opacity:0.078" fill="#c5d7f2" d="M 272.5,115.5 C 273.657,118.273 274.324,121.273 274.5,124.5C 272.882,121.829 272.215,118.829 272.5,115.5 Z"/></g>
<g><path style="opacity:0.667" fill="#748db1" d="M 13.5,125.5 C 15.0395,127.838 15.7062,130.505 15.5,133.5C 14.2318,131.095 13.5651,128.428 13.5,125.5 Z"/></g>
<g><path style="opacity:0.424" fill="#95a7ca" d="M 326.5,129.5 C 328.483,132.799 329.483,136.466 329.5,140.5C 327.926,137.093 326.926,133.427 326.5,129.5 Z"/></g>
<g><path style="opacity:0.192" fill="#9bb8da" d="M 18.5,146.5 C 19.9063,146.973 20.573,147.973 20.5,149.5C 19.0937,149.027 18.427,148.027 18.5,146.5 Z"/></g>
<g><path style="opacity:0.329" fill="#a8b9dd" d="M 332.5,149.5 C 333.931,150.78 334.598,152.447 334.5,154.5C 333.069,153.22 332.402,151.553 332.5,149.5 Z"/></g>
<g><path style="opacity:1" fill="#425b93" d="M 25.5,161.5 C 29.6454,165.733 33.8121,170.066 38,174.5C 38.4935,176.134 38.6602,177.801 38.5,179.5C 36.4218,178.257 34.5885,176.59 33,174.5C 29.9711,170.438 27.4711,166.105 25.5,161.5 Z"/></g>
<g><path style="opacity:0.216" fill="#b5c9ea" d="M 274.5,170.5 C 274.451,174.078 273.785,177.411 272.5,180.5C 272.322,176.878 272.989,173.544 274.5,170.5 Z"/></g>
<g><path style="opacity:0.051" fill="#abbbdc" d="M 348.5,177.5 C 350.19,177.856 351.19,178.856 351.5,180.5C 349.81,180.144 348.81,179.144 348.5,177.5 Z"/></g>
<g><path style="opacity:0.988" fill="#435b91" d="M 584.5,184.5 C 583.527,192.36 582.193,200.026 580.5,207.5C 580.02,199.374 581.353,191.707 584.5,184.5 Z"/></g>
<g><path style="opacity:1" fill="#405a98" d="M 38.5,180.5 C 40.258,180.877 41.9246,181.544 43.5,182.5C 44.6047,184.969 46.438,186.636 49,187.5C 49.3095,188.766 49.8095,189.933 50.5,191C 52.6843,191.867 54.851,192.701 57,193.5C 58.5496,193.05 60.0496,192.883 61.5,193C 62.7246,196.731 64.3912,200.231 66.5,203.5C 55.7049,197.714 46.3716,190.047 38.5,180.5 Z"/></g>
<g><path style="opacity:0.412" fill="#9aaecf" d="M 364.5,193.5 C 366.027,193.427 367.027,194.094 367.5,195.5C 365.973,195.573 364.973,194.906 364.5,193.5 Z"/></g>
<g><path style="opacity:0.204" fill="#cedaf4" d="M 368.5,196.5 C 369.71,196.932 370.71,197.599 371.5,198.5C 369.821,198.715 368.821,198.048 368.5,196.5 Z"/></g>
<g><path style="opacity:0.461" fill="#6980a5" d="M 269.5,198.5 C 269.324,201.727 268.657,204.727 267.5,207.5C 267.215,204.171 267.882,201.171 269.5,198.5 Z"/></g>
<g><path style="opacity:1" fill="#405a96" d="M 407.5,215.5 C 404.784,215.322 402.117,214.822 399.5,214C 391.589,210.995 384.255,207.162 377.5,202.5C 379.679,204.164 381.512,203.83 383,201.5C 386.112,203.275 388.945,205.442 391.5,208C 392.784,208.684 393.951,208.517 395,207.5C 397.561,211.75 401.394,213.583 406.5,213C 407.252,213.671 407.586,214.504 407.5,215.5 Z"/></g>
<g><path style="opacity:0.11" fill="#b0d0e7" d="M 141.5,218.5 C 143.265,217.539 145.265,217.205 147.5,217.5C 147.821,222.695 147.487,227.695 146.5,232.5C 146.5,227.833 146.5,223.167 146.5,218.5C 144.833,218.5 143.167,218.5 141.5,218.5 Z"/></g>
<g><path style="opacity:0.247" fill="#bac6e8" d="M 264.5,221.5 C 264.598,223.553 263.931,225.22 262.5,226.5C 262.402,224.447 263.069,222.78 264.5,221.5 Z"/></g>
<g><path style="opacity:0.075" fill="#c1d1ea" d="M 261.5,229.5 C 261.88,231.698 261.213,233.365 259.5,234.5C 259.796,232.597 260.463,230.93 261.5,229.5 Z"/></g>
<g><path style="opacity:0.357" fill="#a8b6d8" d="M 458.5,235.5 C 458.889,238.553 458.223,241.22 456.5,243.5C 456.802,240.627 457.469,237.961 458.5,235.5 Z"/></g>
<g><path style="opacity:0.075" fill="#a9bce0" d="M 145.5,238.5 C 145.279,241.067 144.612,243.401 143.5,245.5C 143.171,242.772 143.837,240.438 145.5,238.5 Z"/></g>
<g><path style="opacity:1" fill="#466097" d="M 256.5,241.5 C 253.269,248.964 249.269,255.964 244.5,262.5C 245.333,260.248 245.333,258.081 244.5,256C 246.663,255.755 248.33,254.755 249.5,253C 245.968,248.768 246.968,246.935 252.5,247.5C 252.5,245.833 252.5,244.167 252.5,242.5C 253.959,242.567 255.292,242.234 256.5,241.5 Z"/></g>
<g><path style="opacity:0.071" fill="#a3b2d2" d="M 455.5,247.5 C 455.204,249.403 454.537,251.07 453.5,252.5C 453.12,250.302 453.787,248.635 455.5,247.5 Z"/></g>
<g><path style="opacity:0.192" fill="#9dafce" d="M 142.5,248.5 C 142.771,250.38 142.104,251.713 140.5,252.5C 140.66,250.847 141.326,249.514 142.5,248.5 Z"/></g>
<g><path style="opacity:0.082" fill="#acbfdd" d="M 135.5,263.5 C 135.573,265.027 134.906,266.027 133.5,266.5C 133.427,264.973 134.094,263.973 135.5,263.5 Z"/></g>
<g><path style="opacity:1" fill="#345493" d="M 558.5,260.5 C 556.251,264.598 553.751,268.598 551,272.5C 546.393,278.054 541.56,283.388 536.5,288.5C 536.659,285.845 537.659,283.512 539.5,281.5C 542.851,279.146 545.518,276.146 547.5,272.5C 545.913,269.833 544.746,267.166 544,264.5C 546.464,263.474 548.298,264.308 549.5,267C 550.448,267.483 551.448,267.649 552.5,267.5C 552.739,265.533 552.406,263.699 551.5,262C 552.667,261.5 553.5,260.667 554,259.5C 555.356,260.38 556.856,260.714 558.5,260.5 Z"/></g>
<g><path style="opacity:0.031" fill="#a0bfdc" d="M 218.5,294.5 C 218.573,296.027 217.906,297.027 216.5,297.5C 216.427,295.973 217.094,294.973 218.5,294.5 Z"/></g>
<g><path style="opacity:1" fill="#415b92" d="M 105.5,302.5 C 104.035,305.639 102.701,308.472 101.5,311C 97.996,312.254 94.6626,313.754 91.5,315.5C 95.8861,310.777 100.553,306.444 105.5,302.5 Z"/></g>
<g><path style="opacity:0.278" fill="#91a3c1" d="M 407.5,312.5 C 406.833,313.833 405.833,314.833 404.5,315.5C 404.5,313.5 405.5,312.5 407.5,312.5 Z"/></g>
<g><path style="opacity:0.957" fill="#596ca3" d="M 189.5,322.5 C 185.773,326.233 181.773,329.566 177.5,332.5C 178.684,331.312 178.684,330.145 177.5,329C 180.289,327.383 182.956,325.55 185.5,323.5C 186.689,322.571 188.022,322.238 189.5,322.5 Z"/></g>
<g><path style="opacity:0.149" fill="#a9b5d3" d="M 384.5,332.5 C 383.71,333.401 382.71,334.068 381.5,334.5C 381.821,332.952 382.821,332.285 384.5,332.5 Z"/></g>
<g><path style="opacity:1" fill="#435c94" d="M 76.5,328.5 C 73.3109,333.093 69.6443,337.259 65.5,341C 60.7844,343.09 56.1177,345.257 51.5,347.5C 51.4142,346.504 51.7476,345.671 52.5,345C 60.6881,339.742 68.6881,334.242 76.5,328.5 Z"/></g>
<g><path style="opacity:0.067" fill="#9ca9cb" d="M 167.5,340.5 C 165.858,341.803 164.191,343.136 162.5,344.5C 162.967,341.703 164.633,340.369 167.5,340.5 Z"/></g>
<g><path style="opacity:1" fill="#465e99" d="M 469.5,348.5 C 463.276,353.294 456.609,357.627 449.5,361.5C 449.5,360.5 449.5,359.5 449.5,358.5C 450.873,358.657 452.207,358.49 453.5,358C 451.842,357.275 451.342,356.108 452,354.5C 453.716,355.552 454.716,354.886 455,352.5C 455.308,353.308 455.808,353.975 456.5,354.5C 457.506,354.062 457.506,353.396 456.5,352.5C 458.396,351.534 460.396,351.201 462.5,351.5C 462.33,350.178 462.663,349.011 463.5,348C 465.433,347.749 467.266,347.249 469,346.5C 469.464,347.094 469.631,347.761 469.5,348.5 Z"/></g>
<g><path style="opacity:0.369" fill="#98a9c9" d="M 40.5,354.5 C 39.3406,356.25 37.674,357.25 35.5,357.5C 36.6594,355.75 38.326,354.75 40.5,354.5 Z"/></g>
<g><path style="opacity:0.067" fill="#c0cde8" d="M 351.5,355.5 C 350.71,356.401 349.71,357.068 348.5,357.5C 348.821,355.952 349.821,355.285 351.5,355.5 Z"/></g>
<g><path style="opacity:1" fill="#3c588e" d="M 361.5,348.5 C 359.68,350.834 358.014,353.334 356.5,356C 352.846,357.274 349.18,358.44 345.5,359.5C 345.973,358.094 346.973,357.427 348.5,357.5C 349.71,357.068 350.71,356.401 351.5,355.5C 354.525,352.811 357.858,350.477 361.5,348.5 Z"/></g>
<g><path style="opacity:0.992" fill="#4f669d" d="M 449.5,361.5 C 443.192,366.325 436.525,370.658 429.5,374.5C 430.807,373.198 430.807,371.865 429.5,370.5C 431.743,369.526 434.076,369.192 436.5,369.5C 436.5,368.5 436.5,367.5 436.5,366.5C 437.5,366.5 438.5,366.5 439.5,366.5C 439.5,365.5 439.5,364.5 439.5,363.5C 442.587,361.983 445.921,361.316 449.5,361.5 Z"/></g>
<g><path style="opacity:1" fill="#5a71a4" d="M 132.5,364.5 C 129.447,367.192 126.114,369.525 122.5,371.5C 123.038,369.883 123.371,368.216 123.5,366.5C 125.199,366.66 126.866,366.494 128.5,366C 127.289,365.107 127.289,364.274 128.5,363.5C 129.736,364.246 131.07,364.579 132.5,364.5 Z"/></g>
<g><path style="opacity:1" fill="#4b6295" d="M 24.5,364.5 C 20.6645,370.095 15.3311,373.428 8.5,374.5C 13.5624,370.779 18.8957,367.445 24.5,364.5 Z"/></g>
<g><path style="opacity:1" fill="#3a5593" d="M 325.5,371.5 C 325.047,372.458 324.381,373.292 323.5,374C 324.451,374.718 324.617,375.551 324,376.5C 322.12,375.07 320.62,375.404 319.5,377.5C 320.833,378.167 322.167,378.833 323.5,379.5C 321.78,380.934 319.78,381.767 317.5,382C 316.483,383.049 316.316,384.216 317,385.5C 317.893,384.289 318.726,384.289 319.5,385.5C 319.069,386.293 318.735,387.127 318.5,388C 320.225,390.886 320.892,394.052 320.5,397.5C 317.139,391.947 314.139,386.114 311.5,380C 315.727,376.389 320.394,373.556 325.5,371.5 Z"/></g>
<g><path style="opacity:0.275" fill="#9aabcc" d="M 104.5,381.5 C 103.341,383.25 101.674,384.25 99.5,384.5C 100.659,382.75 102.326,381.75 104.5,381.5 Z"/></g>
<g><path style="opacity:1" fill="#50669d" d="M 417.5,381.5 C 410.159,385.836 402.826,390.17 395.5,394.5C 395.5,393.167 395.5,391.833 395.5,390.5C 398.455,388.614 401.789,387.614 405.5,387.5C 404.835,384.112 405.835,383.112 408.5,384.5C 410.996,383.42 413.33,382.086 415.5,380.5C 416.183,380.863 416.85,381.196 417.5,381.5 Z"/></g>
<g><path style="opacity:1" fill="#375494" d="M 8.5,374.5 C 9.63504,375.474 10.635,376.641 11.5,378C 7.75088,379.219 4.75088,381.386 2.5,384.5C 3.92157,384.412 5.42157,384.412 7,384.5C 7.39324,386.199 6.89324,387.699 5.5,389C 6.3823,394.225 8.21563,395.059 11,391.5C 11.4978,393.527 11.3311,395.527 10.5,397.5C 12.4828,400.089 13.1495,402.756 12.5,405.5C 7.97772,397.925 3.64439,390.259 -0.5,382.5C -0.5,381.167 -0.5,379.833 -0.5,378.5C 2.39294,376.886 5.39294,375.553 8.5,374.5 Z"/></g>
<g><path style="opacity:1" fill="#677ba8" d="M 65.5,402.5 C 63.2063,404.653 60.5396,406.32 57.5,407.5C 58.5025,405.989 59.1692,404.322 59.5,402.5C 61.5,402.5 63.5,402.5 65.5,402.5 Z"/></g>
<g><path style="opacity:0.063" fill="#c8daee" d="M 325.5,407.5 C 326.674,408.514 327.34,409.847 327.5,411.5C 325.896,410.713 325.229,409.38 325.5,407.5 Z"/></g>
<g><path style="opacity:0.039" fill="#b9c8e8" d="M 367.5,408.5 C 366.486,409.674 365.153,410.34 363.5,410.5C 364.287,408.896 365.62,408.229 367.5,408.5 Z"/></g>
<g><path style="opacity:0.008" fill="#c6cfe7" d="M 360.5,411.5 C 360.027,412.906 359.027,413.573 357.5,413.5C 357.973,412.094 358.973,411.427 360.5,411.5 Z"/></g>
<g><path style="opacity:0.349" fill="#abbbdb" d="M 15.5,412.5 C 17.047,413.768 18.047,415.435 18.5,417.5C 16.5923,416.514 15.5923,414.848 15.5,412.5 Z"/></g>
<g><path style="opacity:0.004" fill="#cbdaea" d="M 352.5,415.5 C 352.027,416.906 351.027,417.573 349.5,417.5C 349.973,416.094 350.973,415.427 352.5,415.5 Z"/></g>
<g><path style="opacity:0.004" fill="#d1ddf1" d="M 32.5,418.5 C 32.1788,420.048 31.1788,420.715 29.5,420.5C 30.2905,419.599 31.2905,418.932 32.5,418.5 Z"/></g>
</svg>
